
<svg fill="none" xmlns="http://www.w3.org/2000/svg">
    <symbol id="icon" viewBox="0 0 24 21" width="24" height="21">
        <path fill="#ffe45e" d="M0 579.261l579.262-579.262 144.817 144.817-579.262 579.262-144.817-144.817z"></path>
<path fill="#5eabe3" d="M365.675 724.081l724.077-724.077 144.817 144.817-724.077 724.077-144.817-144.817z"></path>
<path fill="#ff6392" d="M722.575 868.895l868.893-868.893 144.817 144.817-868.893 868.893-144.817-144.817z"></path>
    </symbol>
    <symbol id="figma" viewBox="0 0 34 20" width="16" height="23">
        <path d="M1 4.5C1 3.57174 1.36875 2.6815 2.02513 2.02513C2.6815 1.36875 3.57174 1 4.5 1H8V8H4.5C3.57174 8 2.6815 7.63125 2.02513 6.97487C1.36875 6.3185 1 5.42826 1 4.5Z" stroke="#678398" stroke-width="2" stroke-linecap="round" stroke-linejoin="round"/>
        <path d="M8 1H11.5C11.9596 1 12.4148 1.09053 12.8394 1.26642C13.264 1.44231 13.6499 1.70012 13.9749 2.02513C14.2999 2.35013 14.5577 2.73597 14.7336 3.16061C14.9095 3.58525 15 4.04037 15 4.5C15 4.95963 14.9095 5.41475 14.7336 5.83939C14.5577 6.26403 14.2999 6.64987 13.9749 6.97487C13.6499 7.29988 13.264 7.55769 12.8394 7.73358C12.4148 7.90947 11.9596 8 11.5 8H8V1Z" stroke="#678398" stroke-width="2" stroke-linecap="round" stroke-linejoin="round"/>
        <path d="M8 11.5C8 11.0404 8.09053 10.5852 8.26642 10.1606C8.44231 9.73597 8.70012 9.35013 9.02513 9.02513C9.35013 8.70012 9.73597 8.44231 10.1606 8.26642C10.5852 8.09053 11.0404 8 11.5 8C11.9596 8 12.4148 8.09053 12.8394 8.26642C13.264 8.44231 13.6499 8.70012 13.9749 9.02513C14.2999 9.35013 14.5577 9.73597 14.7336 10.1606C14.9095 10.5852 15 11.0404 15 11.5C15 11.9596 14.9095 12.4148 14.7336 12.8394C14.5577 13.264 14.2999 13.6499 13.9749 13.9749C13.6499 14.2999 13.264 14.5577 12.8394 14.7336C12.4148 14.9095 11.9596 15 11.5 15C11.0404 15 10.5852 14.9095 10.1606 14.7336C9.73597 14.5577 9.35013 14.2999 9.02513 13.9749C8.70012 13.6499 8.44231 13.264 8.26642 12.8394C8.09053 12.4148 8 11.9596 8 11.5ZM8 11.5V11.5Z" stroke="#678398" stroke-width="2" stroke-linecap="round" stroke-linejoin="round"/>
        <path d="M1 18.5C1 17.5717 1.36875 16.6815 2.02513 16.0251C2.6815 15.3687 3.57174 15 4.5 15H8V18.5C8 19.4283 7.63125 20.3185 6.97487 20.9749C6.3185 21.6313 5.42826 22 4.5 22C3.57174 22 2.6815 21.6313 2.02513 20.9749C1.36875 20.3185 1 19.4283 1 18.5Z" stroke="#678398" stroke-width="2" stroke-linecap="round" stroke-linejoin="round"/>
        <path d="M1 11.5C1 10.5717 1.36875 9.6815 2.02513 9.02513C2.6815 8.36875 3.57174 8 4.5 8H8V15H4.5C3.57174 15 2.6815 14.6313 2.02513 13.9749C1.36875 13.3185 1 12.4283 1 11.5Z" stroke="#678398" stroke-width="2" stroke-linecap="round" stroke-linejoin="round"/>
    </symbol>
    <symbol id="twitter" viewBox="0 0 24 21" fill="none" width="24" height="21">
        <path d="M23 2.00005C22.0424 2.67552 20.9821 3.19216 19.86 3.53005C19.2577 2.83756 18.4573 2.34674 17.567 2.12397C16.6767 1.90121 15.7395 1.95724 14.8821 2.2845C14.0247 2.61176 13.2884 3.19445 12.773 3.95376C12.2575 4.71308 11.9877 5.61238 12 6.53005V7.53005C10.2426 7.57561 8.50127 7.18586 6.93101 6.39549C5.36074 5.60513 4.01032 4.43868 3 3.00005C3 3.00005 -1 12 8 16C5.94053 17.398 3.48716 18.099 1 18C10 23 21 18 21 6.50005C20.9991 6.2215 20.9723 5.94364 20.92 5.67005C21.9406 4.66354 22.6608 3.39276 23 2.00005ZM23 2.00005V2.00005Z" stroke="#678398" stroke-width="2" stroke-linecap="round" stroke-linejoin="round"/>
    </symbol>
    <symbol id="insta" viewBox="0 0 22 22" fill="none" width="22" height="22">
        <path d="M16 1H6C3.23858 1 1 3.23858 1 6V16C1 18.7614 3.23858 21 6 21H16C18.7614 21 21 18.7614 21 16V6C21 3.23858 18.7614 1 16 1Z" stroke="#678398" stroke-width="2" stroke-linecap="round" stroke-linejoin="round"/>
        <path d="M14.9997 10.3701C15.1231 11.2023 14.981 12.0523 14.5935 12.7991C14.206 13.5459 13.5929 14.1515 12.8413 14.5297C12.0898 14.908 11.2382 15.0397 10.4075 14.906C9.57683 14.7723 8.80947 14.3801 8.21455 13.7852C7.61962 13.1903 7.22744 12.4229 7.09377 11.5923C6.96011 10.7616 7.09177 9.90995 7.47003 9.15843C7.84829 8.40691 8.45389 7.7938 9.20069 7.4063C9.94749 7.0188 10.7975 6.87665 11.6297 7.00006C12.4786 7.12594 13.2646 7.52152 13.8714 8.12836C14.4782 8.73521 14.8738 9.52113 14.9997 10.3701Z" stroke="#678398" stroke-width="2" stroke-linecap="round" stroke-linejoin="round"/>
        <path d="M16.5 5.5H16.51" stroke="#678398" stroke-width="2" stroke-linecap="round" stroke-linejoin="round"/>
    </symbol>
</svg>

    <!-- HEADER-icon 
 <svg xmlns="http://www.w3.org/2000/svg">
    <symbol id="icon" viewBox="0 0 34 20">
        
            <rect width="16" height="4.00003" transform="translate(0 11.3137) rotate(-45)" fill="#FFE45E"/>
            <rect width="20" height="4.00003" transform="translate(7.14209 14.1422) rotate(-45)" fill="#5EABE3"/>
            <rect width="24" height="4.00003" transform="translate(14.1128 16.9706) rotate(-45)" fill="#FF6392"/>


    </symbol>  -->



<svg fill="none" xmlns="http://www.w3.org/2000/svg">
    <symbol id="figma" viewBox="0 0 34 20">
        <path d="M1 4.5C1 3.57174 1.36875 2.6815 2.02513 2.02513C2.6815 1.36875 3.57174 1 4.5 1H8V8H4.5C3.57174 8 2.6815 7.63125 2.02513 6.97487C1.36875 6.3185 1 5.42826 1 4.5Z" stroke="#678398" stroke-width="2" stroke-linecap="round" stroke-linejoin="round"/>
        <path d="M8 1H11.5C11.9596 1 12.4148 1.09053 12.8394 1.26642C13.264 1.44231 13.6499 1.70012 13.9749 2.02513C14.2999 2.35013 14.5577 2.73597 14.7336 3.16061C14.9095 3.58525 15 4.04037 15 4.5C15 4.95963 14.9095 5.41475 14.7336 5.83939C14.5577 6.26403 14.2999 6.64987 13.9749 6.97487C13.6499 7.29988 13.264 7.55769 12.8394 7.73358C12.4148 7.90947 11.9596 8 11.5 8H8V1Z" stroke="#678398" stroke-width="2" stroke-linecap="round" stroke-linejoin="round"/>
        <path d="M8 11.5C8 11.0404 8.09053 10.5852 8.26642 10.1606C8.44231 9.73597 8.70012 9.35013 9.02513 9.02513C9.35013 8.70012 9.73597 8.44231 10.1606 8.26642C10.5852 8.09053 11.0404 8 11.5 8C11.9596 8 12.4148 8.09053 12.8394 8.26642C13.264 8.44231 13.6499 8.70012 13.9749 9.02513C14.2999 9.35013 14.5577 9.73597 14.7336 10.1606C14.9095 10.5852 15 11.0404 15 11.5C15 11.9596 14.9095 12.4148 14.7336 12.8394C14.5577 13.264 14.2999 13.6499 13.9749 13.9749C13.6499 14.2999 13.264 14.5577 12.8394 14.7336C12.4148 14.9095 11.9596 15 11.5 15C11.0404 15 10.5852 14.9095 10.1606 14.7336C9.73597 14.5577 9.35013 14.2999 9.02513 13.9749C8.70012 13.6499 8.44231 13.264 8.26642 12.8394C8.09053 12.4148 8 11.9596 8 11.5ZM8 11.5V11.5Z" stroke="#678398" stroke-width="2" stroke-linecap="round" stroke-linejoin="round"/>
        <path d="M1 18.5C1 17.5717 1.36875 16.6815 2.02513 16.0251C2.6815 15.3687 3.57174 15 4.5 15H8V18.5C8 19.4283 7.63125 20.3185 6.97487 20.9749C6.3185 21.6313 5.42826 22 4.5 22C3.57174 22 2.6815 21.6313 2.02513 20.9749C1.36875 20.3185 1 19.4283 1 18.5Z" stroke="#678398" stroke-width="2" stroke-linecap="round" stroke-linejoin="round"/>
        <path d="M1 11.5C1 10.5717 1.36875 9.6815 2.02513 9.02513C2.6815 8.36875 3.57174 8 4.5 8H8V15H4.5C3.57174 15 2.6815 14.6313 2.02513 13.9749C1.36875 13.3185 1 12.4283 1 11.5Z" stroke="#678398" stroke-width="2" stroke-linecap="round" stroke-linejoin="round"/>
    </symbol>
    <symbol id="twitter" viewBox="0 0 24 21" fill="none">
        <path d="M23 2.00005C22.0424 2.67552 20.9821 3.19216 19.86 3.53005C19.2577 2.83756 18.4573 2.34674 17.567 2.12397C16.6767 1.90121 15.7395 1.95724 14.8821 2.2845C14.0247 2.61176 13.2884 3.19445 12.773 3.95376C12.2575 4.71308 11.9877 5.61238 12 6.53005V7.53005C10.2426 7.57561 8.50127 7.18586 6.93101 6.39549C5.36074 5.60513 4.01032 4.43868 3 3.00005C3 3.00005 -1 12 8 16C5.94053 17.398 3.48716 18.099 1 18C10 23 21 18 21 6.50005C20.9991 6.2215 20.9723 5.94364 20.92 5.67005C21.9406 4.66354 22.6608 3.39276 23 2.00005ZM23 2.00005V2.00005Z" stroke="#678398" stroke-width="2" stroke-linecap="round" stroke-linejoin="round"/>
    </symbol>
    <symbol id="insta" viewBox="0 0 22 22" fill="none">
        <path d="M16 1H6C3.23858 1 1 3.23858 1 6V16C1 18.7614 3.23858 21 6 21H16C18.7614 21 21 18.7614 21 16V6C21 3.23858 18.7614 1 16 1Z" stroke="#678398" stroke-width="2" stroke-linecap="round" stroke-linejoin="round"/>
    </symbol>
</svg>
